<?xml version="1.0" encoding="UTF-8" standalone="no"?>
<svg
   version="1.1"
   viewBox="0 0 20 20"
   id="svg2"
   sodipodi:docname="favicon.svg"
   xml:space="preserve"
   inkscape:version="1.4.2 (ebf0e940d0, 2025-05-08)"
   xmlns:inkscape="http://www.inkscape.org/namespaces/inkscape"
   xmlns:sodipodi="http://sodipodi.sourceforge.net/DTD/sodipodi-0.dtd"
   xmlns:xlink="http://www.w3.org/1999/xlink"
   xmlns="http://www.w3.org/2000/svg"
   xmlns:svg="http://www.w3.org/2000/svg"><defs
     id="defs2"><linearGradient
       id="linearGradient4"
       inkscape:collect="always"><stop
         style="stop-color:#b3b3b3;stop-opacity:1;"
         offset="0"
         id="stop4" /><stop
         style="stop-color:#767676;stop-opacity:1;"
         offset="1"
         id="stop5" /></linearGradient><linearGradient
       id="linearGradient2"
       inkscape:collect="always"><stop
         style="stop-color:#b3b3b3;stop-opacity:1;"
         offset="0"
         id="stop2" /><stop
         style="stop-color:#767676;stop-opacity:1;"
         offset="1"
         id="stop3" /></linearGradient><linearGradient
       inkscape:collect="always"
       xlink:href="#linearGradient2"
       id="linearGradient3"
       x1="0.11085767"
       y1="11.814453"
       x2="19.957031"
       y2="11.814453"
       gradientUnits="userSpaceOnUse" /><linearGradient
       inkscape:collect="always"
       xlink:href="#linearGradient4"
       id="linearGradient5"
       x1="7.709"
       y1="6.1856"
       x2="19.8244"
       y2="6.1856"
       gradientUnits="userSpaceOnUse" /></defs><sodipodi:namedview
     id="namedview2"
     pagecolor="#505050"
     bordercolor="#eeeeee"
     borderopacity="1"
     inkscape:showpageshadow="0"
     inkscape:pageopacity="0"
     inkscape:pagecheckerboard="0"
     inkscape:deskcolor="#505050"
     inkscape:zoom="28.390337"
     inkscape:cx="7.9252317"
     inkscape:cy="13.261554"
     inkscape:window-width="1920"
     inkscape:window-height="1012"
     inkscape:window-x="0"
     inkscape:window-y="0"
     inkscape:window-maximized="1"
     inkscape:current-layer="svg2" /><path
     id="path1"
     style="fill:url(#linearGradient3);fill-opacity:1"
     d="M 19.957031 7.5625 C 19.516471 9.0163 16.806863 10.117185 13.789062 10.117188 C 10.793265 10.117188 8.0615935 9.0608062 7.6210938 7.6289062 L 7.6210938 9.4980469 L 7.6191406 9.4980469 L 7.6191406 9.4960938 L 7.6171875 9.4941406 C 7.6163916 9.4936136 7.6123029 9.4907244 7.6113281 9.4902344 C 7.5815452 9.4784191 7.4954175 9.4785156 7.4238281 9.4785156 L 6.2988281 9.4570312 C 5.5058181 9.4350034 4.8227813 10.095682 4.8007812 10.888672 L 4.8007812 10.976562 L 3.7011719 11.242188 C 3.6571159 11.176106 3.6344454 11.109049 3.5683594 11.042969 C 3.0617194 10.426189 2.1148469 10.294141 1.4980469 10.800781 L 0.63867188 11.527344 C 0.02189186 12.033984 -0.06719686 12.980856 0.43945312 13.597656 C 0.89127978 14.147707 1.6931067 14.312608 2.2988281 13.982422 L 2.3144531 13.667969 L 2.1074219 13.474609 C 1.7323735 13.718602 1.1917362 13.619012 0.90234375 13.267578 C 0.59395375 12.893098 0.61576237 12.29922 0.99023438 11.96875 L 1.8710938 11.263672 C 2.0349287 11.128751 2.2365111 11.065461 2.4375 11.068359 C 2.6959143 11.072086 2.9534781 11.185839 3.1269531 11.396484 C 2.6643631 11.550684 2.6205581 11.681734 2.6425781 11.835938 C 2.6866341 11.990137 2.7749265 12.121859 3.3476562 12.011719 C 3.3696843 12.276059 3.2808229 12.540567 3.0605469 12.716797 L 2.4023438 13.244141 L 2.5996094 13.486328 L 2.5917969 13.773438 L 3.3925781 13.136719 C 3.7670581 12.828329 3.9424975 12.343449 3.8984375 11.880859 L 4.9550781 11.638672 C 5.1973881 12.101262 5.6607531 12.431641 6.1894531 12.431641 L 7.2910156 12.453125 C 7.3873881 12.453125 7.5370302 12.450305 7.5722656 12.435547 L 7.5742188 12.435547 L 7.5761719 12.433594 L 7.5761719 12.431641 L 7.578125 12.431641 L 7.578125 12.9375 C 7.622181 14.6777 10.440762 16.066406 13.789062 16.066406 C 17.137363 16.066406 19.957031 14.677084 19.957031 12.958984 L 19.957031 7.5625 z M 6.2773438 10.007812 L 7.3789062 10.052734 C 7.4504972 10.052734 7.5385769 10.068664 7.5683594 10.085938 C 7.5693341 10.086607 7.5734227 10.089166 7.5742188 10.089844 L 7.5761719 10.091797 L 7.5761719 10.09375 L 7.5761719 10.095703 L 7.5761719 11.857422 C 7.5768602 11.85811 7.5808631 11.862155 7.5820312 11.863281 L 7.5820312 11.865234 L 7.5839844 11.867188 L 7.5839844 11.869141 L 7.5839844 11.871094 L 7.5839844 11.873047 L 7.5839844 11.875 L 7.5839844 11.876953 L 7.5839844 11.878906 L 7.5820312 11.880859 L 7.5820312 11.882812 L 7.5800781 11.882812 L 7.578125 11.884766 L 7.5761719 11.886719 C 7.5435869 11.909385 7.4381748 11.918488 7.3574219 11.902344 L 6.2324219 11.880859 C 5.9460619 11.880859 5.7270113 11.726139 5.5507812 11.505859 C 6.1455412 11.329639 6.1885813 11.175684 6.1445312 11.021484 C 6.1004752 10.867284 5.9898269 10.735024 5.3730469 10.867188 C 5.4171029 10.404597 5.8147537 10.007816 6.2773438 10.007812 z M 12.255859 10.582031 C 12.466461 10.590066 12.67528 10.67528 12.835938 10.835938 C 13.062155 11.061916 13.137094 11.381728 13.0625 11.669922 L 13.714844 12.322266 L 13.431641 12.605469 L 13.341797 12.515625 C 13.274949 12.448337 13.186314 12.412109 13.091797 12.412109 C 13.061912 12.412109 13.031575 12.41457 13.003906 12.421875 C 12.899206 12.448434 12.815533 12.524145 12.771484 12.621094 L 12.441406 12.292969 C 12.15187 12.368668 11.832793 12.29373 11.605469 12.066406 C 11.360659 11.821613 11.292997 11.465837 11.402344 11.160156 L 11.8125 11.570312 C 11.893293 11.651108 12.020771 11.651108 12.101562 11.570312 L 12.337891 11.333984 C 12.418684 11.253191 12.418684 11.123762 12.337891 11.042969 L 11.929688 10.632812 C 12.006099 10.605476 12.085901 10.589248 12.166016 10.583984 C 12.196058 10.58201 12.225773 10.580883 12.255859 10.582031 z M 15.753906 10.615234 L 16.039062 10.900391 L 15.636719 11.583984 L 15.261719 11.675781 L 13.714844 13.222656 L 13.972656 13.480469 C 14.002317 13.509906 14.012135 13.553464 14.001953 13.59375 C 13.991549 13.634258 13.961717 13.666003 13.921875 13.677734 L 13.605469 13.769531 L 13.513672 14.085938 C 13.508138 14.104751 13.49832 14.120821 13.484375 14.134766 L 12.541016 15.078125 C 12.412193 15.206727 12.240761 15.279297 12.058594 15.279297 C 11.876426 15.279297 11.704995 15.206948 11.576172 15.078125 C 11.44757 14.949302 11.375 14.77787 11.375 14.595703 C 11.375 14.413536 11.447349 14.244057 11.576172 14.115234 L 12.519531 13.169922 C 12.533476 13.155977 12.549545 13.146159 12.568359 13.140625 L 12.884766 13.048828 L 12.976562 12.732422 C 12.98852 12.692578 13.022214 12.662526 13.0625 12.652344 C 13.103231 12.641719 13.144389 12.654154 13.173828 12.683594 L 13.431641 12.939453 L 14.978516 11.392578 L 15.070312 11.017578 L 15.753906 10.615234 z M 14.332031 12.941406 L 14.984375 13.591797 C 15.273912 13.516098 15.594096 13.590187 15.820312 13.816406 C 16.065129 14.06256 16.131677 14.417597 16.023438 14.724609 L 15.613281 14.314453 C 15.532488 14.23366 15.405012 14.23366 15.324219 14.314453 L 15.087891 14.550781 C 15.007097 14.631575 15.007097 14.761004 15.087891 14.841797 L 15.496094 15.251953 C 15.189082 15.361073 14.834654 15.292791 14.589844 15.046875 C 14.363625 14.822027 14.288687 14.503037 14.363281 14.214844 L 14.033203 13.884766 C 14.130152 13.840714 14.205638 13.755091 14.232422 13.650391 C 14.263191 13.529535 14.226548 13.401888 14.138672 13.314453 L 14.048828 13.224609 L 14.332031 12.941406 z M 12.886719 13.638672 C 12.86031 13.64129 12.834693 13.653588 12.814453 13.673828 L 11.966797 14.521484 C 11.920535 14.567525 11.920535 14.641238 11.966797 14.6875 C 11.98982 14.710521 12.020456 14.722656 12.050781 14.722656 C 12.080887 14.722656 12.111745 14.71052 12.134766 14.6875 L 12.980469 13.839844 C 13.026731 13.793803 13.026731 13.72009 12.980469 13.673828 C 12.957449 13.650697 12.928624 13.638672 12.898438 13.638672 C 12.894664 13.638672 12.890491 13.638298 12.886719 13.638672 z " /><path
     d="m10.088 8.9721c1.0133-0.3965 2.2909-0.63881 3.6787-0.63881s2.6434 0.24231 3.6787 0.63881c1.4538-0.57273 2.379-1.4538 2.379-2.4671 0-1.7182-2.7094-3.1059-6.0577-3.1059s-6.0577 1.3878-6.0577 3.1059c0 1.0133 0.9472 1.8944 2.379 2.4671z"
     fill="#b3b3b3"
     stroke-width=".22028"
     id="path2"
     style="fill:url(#linearGradient5)" /><g
     id="g2"
     transform="matrix(0.05666521,0,0,0.05666521,10.879472,10.108852)" /><g
     inkscape:groupmode="layer"
     id="layer1"
     inkscape:label="Layer 1" /></svg>
